<svg width="24" height="24" viewBox="0 0 24 24" fill="none" xmlns="http://www.w3.org/2000/svg">
<rect width="24" height="24" rx="6.66667" fill="#FF7300"/>
<g clip-path="url(#clip0_591_2560)">
<path d="M5.08138 14.9225C6.25758 15.8458 7.76262 16.3517 9.34353 16.3517C9.34353 15.5928 8.81235 14.9478 8.06615 14.7834C7.28202 14.6063 6.56112 14.2775 5.96669 13.8096C5.2205 13.2278 4.75255 12.4942 4.63872 11.7227C4.61343 11.5963 4.72725 11.4824 4.85373 11.5077C5.48609 11.6089 6.6623 11.7354 9.40677 11.7354C10.7853 11.748 11.013 12.1907 11.4556 13.3037C11.4556 13.3037 11.4683 13.329 11.4936 13.3795C11.1015 14.4166 10.368 16.592 10.115 18.5523C10.583 18.6156 11.0636 18.6661 11.5442 18.6914C11.6833 17.6544 11.9742 16.5287 12.2651 15.5802C12.556 16.5414 12.8595 17.6796 12.9986 18.7167C13.4792 18.7041 13.9598 18.6788 14.4278 18.6282C14.1748 16.6299 13.416 14.4166 13.0239 13.3543C13.0492 13.3037 13.0619 13.2657 13.0619 13.2657C13.5045 12.1654 13.7322 11.7101 15.1107 11.6975C17.9058 11.6975 19.082 11.571 19.7017 11.4698C19.8155 11.4572 19.9041 11.5457 19.8914 11.6595C19.7776 12.4436 19.3096 13.1898 18.5508 13.7843C17.9564 14.2522 17.2355 14.581 16.4513 14.7581C15.7051 14.9225 15.174 15.5675 15.174 16.3264C16.7549 16.3264 18.2599 15.8205 19.4361 14.8972C20.6629 13.9234 21.3459 12.6334 21.3459 11.2674V11.0904C21.3459 11.0145 21.3332 10.9386 21.3206 10.8627C21.1814 10.243 20.5111 9.86359 19.7902 10.0154C19.3602 10.1039 18.4623 10.2809 15.0981 10.2809C13.5172 10.2936 12.7583 10.8374 12.2524 11.6469C11.7465 10.8374 10.9877 10.2936 9.40677 10.2809C6.05523 10.2809 5.15726 10.1039 4.72725 10.0154C4.00636 9.86359 3.33605 10.2304 3.19693 10.8627C3.18428 10.9386 3.17163 11.0145 3.17163 11.0904V11.2801C3.17163 12.6586 3.85459 13.9487 5.08138 14.9225Z" fill="white"/>
</g>
<defs>
<clipPath id="clip0_591_2560">
<rect width="18.1616" height="8.71402" fill="white" transform="translate(3.17163 9.97644)"/>
</clipPath>
</defs>
</svg>
